<svg width="90" height="35" viewBox="0 0 90 35" fill="none" xmlns="http://www.w3.org/2000/svg">
<g filter="url(#filter0_d_1_564)">
<rect x="16" y="12.0002" width="70" height="19" rx="3" fill="#F36B53"/>
<path d="M25.5511 26.0002L26.983 17.273H28.1761L26.7443 26.0002H25.5511ZM21.6179 23.7502L21.8182 22.5571H28.5341L28.3338 23.7502H21.6179ZM22.483 26.0002L23.9148 17.273H25.108L23.6761 26.0002H22.483ZM22.125 20.7162L22.321 19.523H29.0369L28.8409 20.7162H22.125ZM30.0522 17.273H31.9869L34.5778 23.5968H34.68L37.271 17.273H39.2056V26.0002H37.6886V20.0045H37.6076L35.1957 25.9747H34.0621L31.6502 19.9917H31.5692V26.0002H30.0522V17.273ZM42.7425 26.1323C42.3278 26.1323 41.9542 26.0585 41.6218 25.9108C41.2923 25.7602 41.0309 25.5386 40.8377 25.246C40.6474 24.9534 40.5522 24.5926 40.5522 24.1636C40.5522 23.7943 40.6204 23.4889 40.7567 23.2474C40.8931 23.0059 41.0792 22.8127 41.315 22.6679C41.5508 22.523 41.8164 22.4136 42.1119 22.3397C42.4102 22.263 42.7184 22.2076 43.0366 22.1735C43.4201 22.1338 43.7312 22.0983 43.9698 22.067C44.2085 22.0329 44.3817 21.9818 44.4897 21.9136C44.6005 21.8426 44.6559 21.7332 44.6559 21.5855V21.5599C44.6559 21.2389 44.5607 20.9903 44.3704 20.8142C44.18 20.638 43.9059 20.55 43.5479 20.55C43.1701 20.55 42.8704 20.6323 42.6488 20.7971C42.43 20.9619 42.2823 21.1565 42.2056 21.3809L40.7653 21.1764C40.8789 20.7787 41.0664 20.4463 41.3278 20.1792C41.5891 19.9093 41.9087 19.7076 42.2866 19.5741C42.6644 19.4377 43.082 19.3696 43.5394 19.3696C43.8548 19.3696 44.1687 19.4065 44.4812 19.4804C44.7937 19.5542 45.0792 19.6764 45.3377 19.8468C45.5962 20.0144 45.8036 20.2431 45.9599 20.5329C46.119 20.8227 46.1985 21.1849 46.1985 21.6196V26.0002H44.7156V25.1011H44.6644C44.5707 25.2829 44.4386 25.4534 44.2681 25.6125C44.1005 25.7687 43.8888 25.8951 43.6332 25.9917C43.3803 26.0855 43.0835 26.1323 42.7425 26.1323ZM43.1431 24.9988C43.4528 24.9988 43.7212 24.9377 43.9485 24.8156C44.1758 24.6906 44.3505 24.5258 44.4727 24.3213C44.5977 24.1167 44.6602 23.8937 44.6602 23.6522V22.8809C44.6119 22.9207 44.5295 22.9576 44.413 22.9917C44.2994 23.0258 44.1715 23.0556 44.0295 23.0812C43.8874 23.1068 43.7468 23.1295 43.6076 23.1494C43.4684 23.1693 43.3477 23.1863 43.2454 23.2005C43.0153 23.2318 42.8093 23.2829 42.6275 23.3539C42.4457 23.425 42.3022 23.5244 42.1971 23.6522C42.092 23.7772 42.0394 23.9392 42.0394 24.138C42.0394 24.4221 42.1431 24.6366 42.3505 24.7815C42.5579 24.9264 42.8221 24.9988 43.1431 24.9988ZM49.2923 22.165V26.0002H47.7496V19.4548H49.2241V20.567H49.3008C49.4513 20.2005 49.6914 19.9093 50.021 19.6934C50.3533 19.4775 50.7638 19.3696 51.2525 19.3696C51.7042 19.3696 52.0977 19.4662 52.4329 19.6593C52.771 19.8525 53.0323 20.1323 53.217 20.4988C53.4045 20.8653 53.4968 21.3099 53.494 21.8326V26.0002H51.9513V22.0713C51.9513 21.6338 51.8377 21.2914 51.6104 21.0443C51.386 20.7971 51.0749 20.6735 50.6772 20.6735C50.4073 20.6735 50.1673 20.7332 49.957 20.8525C49.7496 20.969 49.5863 21.138 49.467 21.3596C49.3505 21.5812 49.2923 21.8497 49.2923 22.165ZM56.9457 26.1323C56.5309 26.1323 56.1573 26.0585 55.8249 25.9108C55.4954 25.7602 55.234 25.5386 55.0408 25.246C54.8505 24.9534 54.7553 24.5926 54.7553 24.1636C54.7553 23.7943 54.8235 23.4889 54.9599 23.2474C55.0962 23.0059 55.2823 22.8127 55.5181 22.6679C55.7539 22.523 56.0195 22.4136 56.315 22.3397C56.6133 22.263 56.9215 22.2076 57.2397 22.1735C57.6232 22.1338 57.9343 22.0983 58.1729 22.067C58.4116 22.0329 58.5849 21.9818 58.6928 21.9136C58.8036 21.8426 58.859 21.7332 58.859 21.5855V21.5599C58.859 21.2389 58.7638 20.9903 58.5735 20.8142C58.3832 20.638 58.109 20.55 57.7511 20.55C57.3732 20.55 57.0735 20.6323 56.8519 20.7971C56.6332 20.9619 56.4854 21.1565 56.4087 21.3809L54.9684 21.1764C55.082 20.7787 55.2695 20.4463 55.5309 20.1792C55.7923 19.9093 56.1119 19.7076 56.4897 19.5741C56.8675 19.4377 57.2852 19.3696 57.7425 19.3696C58.0579 19.3696 58.3718 19.4065 58.6843 19.4804C58.9968 19.5542 59.2823 19.6764 59.5408 19.8468C59.7994 20.0144 60.0067 20.2431 60.163 20.5329C60.3221 20.8227 60.4016 21.1849 60.4016 21.6196V26.0002H58.9187V25.1011H58.8675C58.7738 25.2829 58.6417 25.4534 58.4712 25.6125C58.3036 25.7687 58.092 25.8951 57.8363 25.9917C57.5835 26.0855 57.2866 26.1323 56.9457 26.1323ZM57.3462 24.9988C57.6559 24.9988 57.9244 24.9377 58.1516 24.8156C58.3789 24.6906 58.5536 24.5258 58.6758 24.3213C58.8008 24.1167 58.8633 23.8937 58.8633 23.6522V22.8809C58.815 22.9207 58.7326 22.9576 58.6161 22.9917C58.5025 23.0258 58.3746 23.0556 58.2326 23.0812C58.0906 23.1068 57.9499 23.1295 57.8107 23.1494C57.6715 23.1693 57.5508 23.1863 57.4485 23.2005C57.2184 23.2318 57.0124 23.2829 56.8306 23.3539C56.6488 23.425 56.5053 23.5244 56.4002 23.6522C56.2951 23.7772 56.2425 23.9392 56.2425 24.138C56.2425 24.4221 56.3462 24.6366 56.5536 24.7815C56.761 24.9264 57.0252 24.9988 57.3462 24.9988ZM64.7994 28.5912C64.2454 28.5912 63.7695 28.5159 63.3718 28.3653C62.9741 28.2176 62.6545 28.0187 62.413 27.7687C62.1715 27.5187 62.0039 27.2417 61.9102 26.9377L63.2994 26.6011C63.3619 26.7289 63.4528 26.8554 63.5721 26.9804C63.6914 27.1082 63.8519 27.2133 64.0536 27.2957C64.2582 27.3809 64.5153 27.4235 64.8249 27.4235C65.2624 27.4235 65.6246 27.317 65.9116 27.1039C66.1985 26.8937 66.342 26.5471 66.342 26.0642V24.8241H66.2653C66.1857 24.9832 66.0692 25.1466 65.9158 25.3142C65.7653 25.4818 65.565 25.6224 65.315 25.736C65.0678 25.8497 64.7567 25.9065 64.3817 25.9065C63.8789 25.9065 63.4229 25.7886 63.0138 25.5528C62.6076 25.3142 62.2837 24.9591 62.0423 24.4875C61.8036 24.013 61.6843 23.4193 61.6843 22.7062C61.6843 21.9875 61.8036 21.3809 62.0423 20.8866C62.2837 20.3894 62.609 20.013 63.0181 19.7573C63.4272 19.4988 63.8832 19.3696 64.386 19.3696C64.7695 19.3696 65.0849 19.4349 65.332 19.5656C65.582 19.6934 65.7809 19.8483 65.9286 20.0301C66.0763 20.2091 66.1886 20.3781 66.2653 20.5372H66.3505V19.4548H67.8718V26.1068C67.8718 26.6664 67.7383 27.1295 67.4712 27.496C67.2042 27.8625 66.8391 28.1366 66.3761 28.3184C65.913 28.5002 65.3874 28.5912 64.7994 28.5912ZM64.8121 24.6963C65.1388 24.6963 65.4173 24.6167 65.6474 24.4576C65.8775 24.2985 66.0522 24.0698 66.1715 23.7716C66.2908 23.4733 66.3505 23.1153 66.3505 22.6977C66.3505 22.2858 66.2908 21.925 66.1715 21.6153C66.055 21.3056 65.8817 21.0656 65.6516 20.8951C65.4244 20.7218 65.1445 20.6352 64.8121 20.6352C64.4684 20.6352 64.1815 20.7247 63.9513 20.9037C63.7212 21.0826 63.5479 21.3284 63.4315 21.6409C63.315 21.9505 63.2567 22.3028 63.2567 22.6977C63.2567 23.0983 63.315 23.4491 63.4315 23.7502C63.5508 24.0485 63.7255 24.2815 63.9556 24.4491C64.1886 24.6139 64.4741 24.6963 64.8121 24.6963ZM72.3505 26.1281C71.6942 26.1281 71.1275 25.9917 70.6502 25.719C70.1758 25.4434 69.8107 25.0542 69.555 24.5514C69.2994 24.0457 69.1715 23.4505 69.1715 22.7659C69.1715 22.0926 69.2994 21.5017 69.555 20.9931C69.8136 20.4818 70.1744 20.0841 70.6374 19.8C71.1005 19.513 71.6445 19.3696 72.2695 19.3696C72.6729 19.3696 73.0536 19.4349 73.4116 19.5656C73.7724 19.6934 74.0906 19.8923 74.3661 20.1622C74.6445 20.4321 74.8633 20.7758 75.0224 21.1934C75.1815 21.6082 75.261 22.1025 75.261 22.6764V23.1494H69.896V22.1096H73.7823C73.7795 21.8142 73.7156 21.5514 73.5906 21.3213C73.4656 21.0883 73.2908 20.9051 73.0664 20.7716C72.8448 20.638 72.5863 20.5713 72.2908 20.5713C71.9755 20.5713 71.6985 20.648 71.4599 20.8014C71.2212 20.9519 71.0352 21.1508 70.9016 21.398C70.771 21.6423 70.7042 21.9108 70.7013 22.2034V23.111C70.7013 23.4917 70.771 23.8184 70.9102 24.0912C71.0494 24.361 71.244 24.5684 71.494 24.7133C71.744 24.8554 72.0366 24.9264 72.3718 24.9264C72.5962 24.9264 72.7994 24.8951 72.9812 24.8326C73.163 24.7673 73.3207 24.6721 73.4542 24.5471C73.5877 24.4221 73.6886 24.2673 73.7567 24.0826L75.1971 24.2446C75.1062 24.6252 74.9329 24.9576 74.6772 25.2417C74.4244 25.523 74.1005 25.7417 73.7056 25.898C73.3107 26.0514 72.859 26.1281 72.3505 26.1281ZM76.5661 26.0002V19.4548H78.0618V20.5457H78.13C78.2493 20.1679 78.4538 19.8767 78.7436 19.6721C79.0362 19.4647 79.37 19.361 79.745 19.361C79.8303 19.361 79.9254 19.3653 80.0305 19.3738C80.1385 19.3795 80.228 19.3894 80.299 19.4037V20.8227C80.2337 20.8 80.13 20.7801 79.9879 20.763C79.8487 20.7431 79.7138 20.7332 79.5831 20.7332C79.3018 20.7332 79.049 20.7943 78.8246 20.9164C78.603 21.0358 78.4283 21.2019 78.3004 21.415C78.1726 21.6281 78.1087 21.8738 78.1087 22.1522V26.0002H76.5661Z" fill="white"/>
<path d="M4.53906 4.87549L19.4727 9.81787C19.4767 9.81921 19.4836 9.82297 19.4893 9.83057L19.5 9.86475C19.5001 9.87981 19.4957 9.89104 19.4902 9.89893L19.4736 9.91357L12.2451 12.5718L12.0225 12.6528L11.9453 12.8765L9.36328 20.3188C9.35501 20.3427 9.33885 20.3471 9.33301 20.3472L9.31934 20.3423C9.31337 20.3381 9.30678 20.3306 9.30273 20.3179V20.3169L4.50293 4.94287V4.94189C4.49602 4.91925 4.50294 4.89667 4.51465 4.88428C4.52011 4.87866 4.52575 4.87637 4.5293 4.87549C4.53264 4.87469 4.53559 4.87436 4.53906 4.87549Z" fill="#F36B53" stroke="white"/>
</g>
<defs>
<filter id="filter0_d_1_564" x="0" y="0.374512" width="90" height="34.6257" filterUnits="userSpaceOnUse" color-interpolation-filters="sRGB">
<feFlood flood-opacity="0" result="BackgroundImageFix"/>
<feColorMatrix in="SourceAlpha" type="matrix" values="0 0 0 0 0 0 0 0 0 0 0 0 0 0 0 0 0 0 127 0" result="hardAlpha"/>
<feOffset/>
<feGaussianBlur stdDeviation="2"/>
<feComposite in2="hardAlpha" operator="out"/>
<feColorMatrix type="matrix" values="0 0 0 0 0 0 0 0 0 0 0 0 0 0 0 0 0 0 0.3 0"/>
<feBlend mode="normal" in2="BackgroundImageFix" result="effect1_dropShadow_1_564"/>
<feBlend mode="normal" in="SourceGraphic" in2="effect1_dropShadow_1_564" result="shape"/>
</filter>
</defs>
</svg>
