<svg width="97" height="30" viewBox="0 0 97 30" fill="none" xmlns="http://www.w3.org/2000/svg">
<g filter="url(#filter0_d_1_560)">
<rect x="16" y="7" width="77" height="19" rx="3" fill="#FE7239"/>
<path d="M25.1078 21L26.5396 12.2727H27.7328L26.301 21H25.1078ZM21.1745 18.75L21.3748 17.5568H28.0907L27.8904 18.75H21.1745ZM22.0396 21L23.4714 12.2727H24.6646L23.2328 21H22.0396ZM21.6816 15.7159L21.8777 14.5227H28.5936L28.3976 15.7159H21.6816ZM32.5662 21H29.6088V12.2727H32.6259C33.4924 12.2727 34.2367 12.4474 34.8588 12.7969C35.4838 13.1435 35.964 13.642 36.2992 14.2926C36.6344 14.9432 36.802 15.7216 36.802 16.6278C36.802 17.5369 36.633 18.3182 36.2949 18.9716C35.9597 19.625 35.4753 20.1264 34.8418 20.4759C34.2111 20.8253 33.4526 21 32.5662 21ZM31.1898 19.6321H32.4895C33.0975 19.6321 33.6046 19.5213 34.0108 19.2997C34.4171 19.0753 34.7225 18.7415 34.927 18.2983C35.1316 17.8523 35.2338 17.2955 35.2338 16.6278C35.2338 15.9602 35.1316 15.4062 34.927 14.9659C34.7225 14.5227 34.4199 14.1918 34.0194 13.973C33.6216 13.7514 33.1273 13.6406 32.5364 13.6406H31.1898V19.6321ZM41.1337 21.1278C40.4775 21.1278 39.9107 20.9915 39.4334 20.7188C38.959 20.4432 38.5939 20.054 38.3382 19.5511C38.0826 19.0455 37.9547 18.4503 37.9547 17.7656C37.9547 17.0923 38.0826 16.5014 38.3382 15.9929C38.5968 15.4815 38.9576 15.0838 39.4206 14.7997C39.8837 14.5128 40.4277 14.3693 41.0527 14.3693C41.4561 14.3693 41.8368 14.4347 42.1948 14.5653C42.5556 14.6932 42.8738 14.892 43.1493 15.1619C43.4277 15.4318 43.6465 15.7756 43.8056 16.1932C43.9647 16.608 44.0442 17.1023 44.0442 17.6761V18.1491H38.6792V17.1094H42.5655C42.5627 16.8139 42.4988 16.5511 42.3738 16.321C42.2488 16.0881 42.074 15.9048 41.8496 15.7713C41.628 15.6378 41.3695 15.571 41.074 15.571C40.7587 15.571 40.4817 15.6477 40.2431 15.8011C40.0044 15.9517 39.8184 16.1506 39.6848 16.3977C39.5542 16.642 39.4874 16.9105 39.4846 17.2031V18.1108C39.4846 18.4915 39.5542 18.8182 39.6934 19.0909C39.8326 19.3608 40.0272 19.5682 40.2772 19.7131C40.5272 19.8551 40.8198 19.9261 41.155 19.9261C41.3794 19.9261 41.5826 19.8949 41.7644 19.8324C41.9462 19.767 42.1039 19.6719 42.2374 19.5469C42.3709 19.4219 42.4718 19.267 42.54 19.0824L43.9803 19.2443C43.8894 19.625 43.7161 19.9574 43.4604 20.2415C43.2076 20.5227 42.8837 20.7415 42.4888 20.8977C42.0939 21.0511 41.6422 21.1278 41.1337 21.1278ZM51.0083 14.4545L48.6774 21H46.9728L44.6419 14.4545H46.2868L47.791 19.3168H47.8592L49.3677 14.4545H51.0083ZM54.7509 21.1278C54.0946 21.1278 53.5279 20.9915 53.0506 20.7188C52.5762 20.4432 52.2111 20.054 51.9554 19.5511C51.6998 19.0455 51.5719 18.4503 51.5719 17.7656C51.5719 17.0923 51.6998 16.5014 51.9554 15.9929C52.214 15.4815 52.5748 15.0838 53.0378 14.7997C53.5009 14.5128 54.0449 14.3693 54.6699 14.3693C55.0733 14.3693 55.454 14.4347 55.812 14.5653C56.1728 14.6932 56.4909 14.892 56.7665 15.1619C57.0449 15.4318 57.2637 15.7756 57.4228 16.1932C57.5819 16.608 57.6614 17.1023 57.6614 17.6761V18.1491H52.2963V17.1094H56.1827C56.1799 16.8139 56.1159 16.5511 55.9909 16.321C55.8659 16.0881 55.6912 15.9048 55.4668 15.7713C55.2452 15.6378 54.9867 15.571 54.6912 15.571C54.3759 15.571 54.0989 15.6477 53.8603 15.8011C53.6216 15.9517 53.4355 16.1506 53.302 16.3977C53.1713 16.642 53.1046 16.9105 53.1017 17.2031V18.1108C53.1017 18.4915 53.1713 18.8182 53.3105 19.0909C53.4498 19.3608 53.6444 19.5682 53.8944 19.7131C54.1444 19.8551 54.437 19.9261 54.7722 19.9261C54.9966 19.9261 55.1998 19.8949 55.3816 19.8324C55.5634 19.767 55.7211 19.6719 55.8546 19.5469C55.9881 19.4219 56.089 19.267 56.1571 19.0824L57.5975 19.2443C57.5066 19.625 57.3333 19.9574 57.0776 20.2415C56.8248 20.5227 56.5009 20.7415 56.106 20.8977C55.7111 21.0511 55.2594 21.1278 54.7509 21.1278ZM60.5091 12.2727V21H58.9664V12.2727H60.5091ZM64.9505 21.1278C64.3113 21.1278 63.7573 20.9872 63.2885 20.706C62.8198 20.4247 62.4561 20.0312 62.1976 19.5256C61.9419 19.0199 61.8141 18.429 61.8141 17.7528C61.8141 17.0767 61.9419 16.4844 62.1976 15.9759C62.4561 15.4673 62.8198 15.0724 63.2885 14.7912C63.7573 14.5099 64.3113 14.3693 64.9505 14.3693C65.5897 14.3693 66.1436 14.5099 66.6124 14.7912C67.0811 15.0724 67.4434 15.4673 67.699 15.9759C67.9576 16.4844 68.0868 17.0767 68.0868 17.7528C68.0868 18.429 67.9576 19.0199 67.699 19.5256C67.4434 20.0312 67.0811 20.4247 66.6124 20.706C66.1436 20.9872 65.5897 21.1278 64.9505 21.1278ZM64.959 19.892C65.3056 19.892 65.5953 19.7969 65.8283 19.6065C66.0613 19.4134 66.2346 19.1548 66.3482 18.831C66.4647 18.5071 66.5229 18.1463 66.5229 17.7486C66.5229 17.348 66.4647 16.9858 66.3482 16.6619C66.2346 16.3352 66.0613 16.0753 65.8283 15.8821C65.5953 15.6889 65.3056 15.5923 64.959 15.5923C64.6039 15.5923 64.3084 15.6889 64.0726 15.8821C63.8397 16.0753 63.665 16.3352 63.5485 16.6619C63.4348 16.9858 63.378 17.348 63.378 17.7486C63.378 18.1463 63.4348 18.5071 63.5485 18.831C63.665 19.1548 63.8397 19.4134 64.0726 19.6065C64.3084 19.7969 64.6039 19.892 64.959 19.892ZM69.3961 23.4545V14.4545H70.9132V15.5369H71.0027C71.0822 15.3778 71.1944 15.2088 71.3393 15.0298C71.4842 14.848 71.6802 14.6932 71.9274 14.5653C72.1745 14.4347 72.4899 14.3693 72.8734 14.3693C73.3791 14.3693 73.835 14.4986 74.2413 14.7571C74.6504 15.0128 74.9743 15.392 75.2129 15.8949C75.4544 16.3949 75.5751 17.0085 75.5751 17.7358C75.5751 18.4545 75.4572 19.0653 75.2214 19.5682C74.9856 20.071 74.6646 20.4545 74.2583 20.7188C73.8521 20.983 73.3919 21.1151 72.8777 21.1151C72.5027 21.1151 72.1916 21.0526 71.9444 20.9276C71.6973 20.8026 71.4984 20.652 71.3478 20.4759C71.2001 20.2969 71.085 20.1278 71.0027 19.9688H70.9387V23.4545H69.3961ZM70.9089 17.7273C70.9089 18.1506 70.9686 18.5213 71.0879 18.8395C71.21 19.1577 71.3848 19.4062 71.612 19.5852C71.8422 19.7614 72.1206 19.8494 72.4473 19.8494C72.7882 19.8494 73.0737 19.7585 73.3038 19.5767C73.5339 19.392 73.7072 19.1406 73.8237 18.8224C73.943 18.5014 74.0027 18.1364 74.0027 17.7273C74.0027 17.321 73.9444 16.9602 73.8279 16.6449C73.7115 16.3295 73.5382 16.0824 73.3081 15.9034C73.0779 15.7244 72.791 15.6349 72.4473 15.6349C72.1177 15.6349 71.8379 15.7216 71.6078 15.8949C71.3777 16.0682 71.2029 16.3111 71.0836 16.6236C70.9672 16.9361 70.9089 17.304 70.9089 17.7273ZM79.7939 21.1278C79.1376 21.1278 78.5708 20.9915 78.0936 20.7188C77.6191 20.4432 77.2541 20.054 76.9984 19.5511C76.7427 19.0455 76.6149 18.4503 76.6149 17.7656C76.6149 17.0923 76.7427 16.5014 76.9984 15.9929C77.2569 15.4815 77.6177 15.0838 78.0808 14.7997C78.5439 14.5128 79.0879 14.3693 79.7129 14.3693C80.1163 14.3693 80.497 14.4347 80.8549 14.5653C81.2157 14.6932 81.5339 14.892 81.8095 15.1619C82.0879 15.4318 82.3066 15.7756 82.4657 16.1932C82.6248 16.608 82.7044 17.1023 82.7044 17.6761V18.1491H77.3393V17.1094H81.2257C81.2228 16.8139 81.1589 16.5511 81.0339 16.321C80.9089 16.0881 80.7342 15.9048 80.5098 15.7713C80.2882 15.6378 80.0297 15.571 79.7342 15.571C79.4189 15.571 79.1419 15.6477 78.9032 15.8011C78.6646 15.9517 78.4785 16.1506 78.345 16.3977C78.2143 16.642 78.1475 16.9105 78.1447 17.2031V18.1108C78.1447 18.4915 78.2143 18.8182 78.3535 19.0909C78.4927 19.3608 78.6873 19.5682 78.9373 19.7131C79.1873 19.8551 79.4799 19.9261 79.8152 19.9261C80.0396 19.9261 80.2427 19.8949 80.4245 19.8324C80.6064 19.767 80.764 19.6719 80.8975 19.5469C81.0311 19.4219 81.1319 19.267 81.2001 19.0824L82.6404 19.2443C82.5495 19.625 82.3762 19.9574 82.1206 20.2415C81.8677 20.5227 81.5439 20.7415 81.149 20.8977C80.7541 21.0511 80.3024 21.1278 79.7939 21.1278ZM84.0094 21V14.4545H85.5051V15.5455H85.5733C85.6926 15.1676 85.8972 14.8764 86.187 14.6719C86.4796 14.4645 86.8134 14.3608 87.1884 14.3608C87.2736 14.3608 87.3688 14.3651 87.4739 14.3736C87.5819 14.3793 87.6713 14.3892 87.7424 14.4034V15.8224C87.677 15.7997 87.5733 15.7798 87.4313 15.7628C87.2921 15.7429 87.1571 15.733 87.0265 15.733C86.7452 15.733 86.4924 15.794 86.2679 15.9162C86.0463 16.0355 85.8716 16.2017 85.7438 16.4148C85.6159 16.6278 85.552 16.8736 85.552 17.152V21H84.0094Z" fill="white"/>
<path d="M4.53906 5.28418L19.4727 10.2266C19.4767 10.2279 19.4836 10.2317 19.4893 10.2393L19.5 10.2734C19.5001 10.2885 19.4957 10.2997 19.4902 10.3076L19.4736 10.3223L12.2451 12.9805L12.0225 13.0615L11.9453 13.2852L9.36328 20.7275C9.35501 20.7514 9.33885 20.7558 9.33301 20.7559L9.31934 20.751C9.31337 20.7467 9.30678 20.7393 9.30273 20.7266V20.7256L4.50293 5.35156V5.35059C4.49602 5.32794 4.50294 5.30536 4.51465 5.29297C4.52011 5.28735 4.52575 5.28506 4.5293 5.28418C4.53264 5.28338 4.53559 5.28305 4.53906 5.28418Z" fill="#FE7239" stroke="white"/>
</g>
<defs>
<filter id="filter0_d_1_560" x="0" y="0.783203" width="97" height="29.2168" filterUnits="userSpaceOnUse" color-interpolation-filters="sRGB">
<feFlood flood-opacity="0" result="BackgroundImageFix"/>
<feColorMatrix in="SourceAlpha" type="matrix" values="0 0 0 0 0 0 0 0 0 0 0 0 0 0 0 0 0 0 127 0" result="hardAlpha"/>
<feOffset/>
<feGaussianBlur stdDeviation="2"/>
<feComposite in2="hardAlpha" operator="out"/>
<feColorMatrix type="matrix" values="0 0 0 0 0 0 0 0 0 0 0 0 0 0 0 0 0 0 0.3 0"/>
<feBlend mode="normal" in2="BackgroundImageFix" result="effect1_dropShadow_1_560"/>
<feBlend mode="normal" in="SourceGraphic" in2="effect1_dropShadow_1_560" result="shape"/>
</filter>
</defs>
</svg>
