<svg width="110" height="30" viewBox="0 0 110 30" fill="none" xmlns="http://www.w3.org/2000/svg">
<g filter="url(#filter0_d_1_556)">
<rect x="16" y="7" width="90" height="19" rx="3" fill="#3BC29C"/>
<path d="M25.0863 21L26.5181 12.2727H27.7113L26.2795 21H25.0863ZM21.1531 18.75L21.3533 17.5568H28.0692L27.869 18.75H21.1531ZM22.0181 21L23.4499 12.2727H24.6431L23.2113 21H22.0181ZM21.6602 15.7159L21.8562 14.5227H28.5721L28.3761 15.7159H21.6602ZM35.0888 12.2727H36.6697V17.9744C36.6697 18.5994 36.522 19.1491 36.2266 19.6236C35.9339 20.098 35.522 20.4687 34.9908 20.7358C34.4595 21 33.8388 21.1321 33.1286 21.1321C32.4155 21.1321 31.7933 21 31.2621 20.7358C30.7308 20.4687 30.3189 20.098 30.0263 19.6236C29.7337 19.1491 29.5874 18.5994 29.5874 17.9744V12.2727H31.1683V17.8423C31.1683 18.206 31.2479 18.5298 31.407 18.8139C31.5689 19.098 31.7962 19.321 32.0888 19.483C32.3814 19.642 32.728 19.7216 33.1286 19.7216C33.5291 19.7216 33.8757 19.642 34.1683 19.483C34.4638 19.321 34.6911 19.098 34.8501 18.8139C35.0092 18.5298 35.0888 18.206 35.0888 17.8423V12.2727ZM39.7092 12.2727L41.631 15.4688H41.6992L43.6296 12.2727H45.4322L42.7433 16.6364L45.4748 21H43.6424L41.6992 17.8253H41.631L39.6879 21H37.864L40.6211 16.6364L37.8981 12.2727H39.7092ZM52.6072 21H49.6499V12.2727H52.6669C53.5334 12.2727 54.2777 12.4474 54.8999 12.7969C55.5249 13.1435 56.005 13.642 56.3402 14.2926C56.6754 14.9432 56.843 15.7216 56.843 16.6278C56.843 17.5369 56.674 18.3182 56.3359 18.9716C56.0007 19.625 55.5163 20.1264 54.8828 20.4759C54.2521 20.8253 53.4936 21 52.6072 21ZM51.2308 19.6321H52.5305C53.1385 19.6321 53.6456 19.5213 54.0518 19.2997C54.4581 19.0753 54.7635 18.7415 54.968 18.2983C55.1726 17.8523 55.2749 17.2955 55.2749 16.6278C55.2749 15.9602 55.1726 15.4062 54.968 14.9659C54.7635 14.5227 54.4609 14.1918 54.0604 13.973C53.6626 13.7514 53.1683 13.6406 52.5774 13.6406H51.2308V19.6321ZM61.1747 21.1278C60.5185 21.1278 59.9517 20.9915 59.4744 20.7188C59 20.4432 58.6349 20.054 58.3793 19.5511C58.1236 19.0455 57.9957 18.4503 57.9957 17.7656C57.9957 17.0923 58.1236 16.5014 58.3793 15.9929C58.6378 15.4815 58.9986 15.0838 59.4616 14.7997C59.9247 14.5128 60.4688 14.3693 61.0938 14.3693C61.4972 14.3693 61.8778 14.4347 62.2358 14.5653C62.5966 14.6932 62.9148 14.892 63.1903 15.1619C63.4688 15.4318 63.6875 15.7756 63.8466 16.1932C64.0057 16.608 64.0852 17.1023 64.0852 17.6761V18.1491H58.7202V17.1094H62.6065C62.6037 16.8139 62.5398 16.5511 62.4148 16.321C62.2898 16.0881 62.1151 15.9048 61.8906 15.7713C61.669 15.6378 61.4105 15.571 61.1151 15.571C60.7997 15.571 60.5227 15.6477 60.2841 15.8011C60.0455 15.9517 59.8594 16.1506 59.7259 16.3977C59.5952 16.642 59.5284 16.9105 59.5256 17.2031V18.1108C59.5256 18.4915 59.5952 18.8182 59.7344 19.0909C59.8736 19.3608 60.0682 19.5682 60.3182 19.7131C60.5682 19.8551 60.8608 19.9261 61.196 19.9261C61.4205 19.9261 61.6236 19.8949 61.8054 19.8324C61.9872 19.767 62.1449 19.6719 62.2784 19.5469C62.4119 19.4219 62.5128 19.267 62.581 19.0824L64.0213 19.2443C63.9304 19.625 63.7571 19.9574 63.5014 20.2415C63.2486 20.5227 62.9247 20.7415 62.5298 20.8977C62.1349 21.0511 61.6832 21.1278 61.1747 21.1278ZM70.5636 16.1847L69.1573 16.3381C69.1175 16.196 69.0479 16.0625 68.9485 15.9375C68.8519 15.8125 68.7212 15.7116 68.5565 15.6349C68.3917 15.5582 68.19 15.5199 67.9513 15.5199C67.6303 15.5199 67.3604 15.5895 67.1417 15.7287C66.9258 15.8679 66.8192 16.0483 66.8221 16.2699C66.8192 16.4602 66.8888 16.6151 67.0309 16.7344C67.1758 16.8537 67.4144 16.9517 67.7468 17.0284L68.8633 17.267C69.4826 17.4006 69.9428 17.6122 70.244 17.902C70.5479 18.1918 70.7013 18.571 70.7042 19.0398C70.7013 19.4517 70.5806 19.8153 70.342 20.1307C70.1062 20.4432 69.7781 20.6875 69.3576 20.8636C68.9371 21.0398 68.4542 21.1278 67.9087 21.1278C67.1076 21.1278 66.4627 20.9602 65.9741 20.625C65.4854 20.2869 65.1942 19.8168 65.1005 19.2145L66.6048 19.0696C66.6729 19.3651 66.8178 19.5881 67.0394 19.7386C67.261 19.8892 67.5494 19.9645 67.9045 19.9645C68.271 19.9645 68.565 19.8892 68.7866 19.7386C69.011 19.5881 69.1232 19.402 69.1232 19.1804C69.1232 18.9929 69.0508 18.8381 68.9059 18.7159C68.7638 18.5937 68.5423 18.5 68.2411 18.4347L67.1246 18.2003C66.4968 18.0696 66.0323 17.8494 65.7312 17.5398C65.43 17.2273 65.2809 16.8324 65.2837 16.3551C65.2809 15.9517 65.3903 15.6023 65.6119 15.3068C65.8363 15.0085 66.1474 14.7784 66.5451 14.6165C66.9457 14.4517 67.4073 14.3693 67.93 14.3693C68.6971 14.3693 69.3008 14.5327 69.7411 14.8594C70.1843 15.1861 70.4585 15.6278 70.5636 16.1847ZM71.9762 21V14.4545H73.5188V21H71.9762ZM72.7518 13.5256C72.5075 13.5256 72.2972 13.4446 72.1211 13.2827C71.945 13.1179 71.8569 12.9205 71.8569 12.6903C71.8569 12.4574 71.945 12.2599 72.1211 12.098C72.2972 11.9332 72.5075 11.8509 72.7518 11.8509C72.9989 11.8509 73.2092 11.9332 73.3825 12.098C73.5586 12.2599 73.6467 12.4574 73.6467 12.6903C73.6467 12.9205 73.5586 13.1179 73.3825 13.2827C73.2092 13.4446 72.9989 13.5256 72.7518 13.5256ZM77.9517 23.5909C77.3977 23.5909 76.9219 23.5156 76.5241 23.3651C76.1264 23.2173 75.8068 23.0185 75.5653 22.7685C75.3239 22.5185 75.1562 22.2415 75.0625 21.9375L76.4517 21.6009C76.5142 21.7287 76.6051 21.8551 76.7244 21.9801C76.8438 22.108 77.0043 22.2131 77.206 22.2955C77.4105 22.3807 77.6676 22.4233 77.9773 22.4233C78.4148 22.4233 78.777 22.3168 79.0639 22.1037C79.3509 21.8935 79.4943 21.5469 79.4943 21.0639V19.8239H79.4176C79.3381 19.983 79.2216 20.1463 79.0682 20.3139C78.9176 20.4815 78.7173 20.6222 78.4673 20.7358C78.2202 20.8494 77.9091 20.9062 77.5341 20.9062C77.0312 20.9062 76.5753 20.7884 76.1662 20.5526C75.7599 20.3139 75.4361 19.9588 75.1946 19.4872C74.956 19.0128 74.8366 18.419 74.8366 17.706C74.8366 16.9872 74.956 16.3807 75.1946 15.8864C75.4361 15.3892 75.7614 15.0128 76.1705 14.7571C76.5795 14.4986 77.0355 14.3693 77.5384 14.3693C77.9219 14.3693 78.2372 14.4347 78.4844 14.5653C78.7344 14.6932 78.9332 14.848 79.081 15.0298C79.2287 15.2088 79.3409 15.3778 79.4176 15.5369H79.5028V14.4545H81.0241V21.1065C81.0241 21.6662 80.8906 22.1293 80.6236 22.4957C80.3565 22.8622 79.9915 23.1364 79.5284 23.3182C79.0653 23.5 78.5398 23.5909 77.9517 23.5909ZM77.9645 19.696C78.2912 19.696 78.5696 19.6165 78.7997 19.4574C79.0298 19.2983 79.2045 19.0696 79.3239 18.7713C79.4432 18.473 79.5028 18.1151 79.5028 17.6974C79.5028 17.2855 79.4432 16.9247 79.3239 16.6151C79.2074 16.3054 79.0341 16.0653 78.804 15.8949C78.5767 15.7216 78.2969 15.6349 77.9645 15.6349C77.6207 15.6349 77.3338 15.7244 77.1037 15.9034C76.8736 16.0824 76.7003 16.3281 76.5838 16.6406C76.4673 16.9503 76.4091 17.3026 76.4091 17.6974C76.4091 18.098 76.4673 18.4489 76.5838 18.75C76.7031 19.0483 76.8778 19.2812 77.108 19.4489C77.3409 19.6136 77.6264 19.696 77.9645 19.696ZM84.1477 17.1648V21H82.6051V14.4545H84.0795V15.5668H84.1562C84.3068 15.2003 84.5469 14.9091 84.8764 14.6932C85.2088 14.4773 85.6193 14.3693 86.108 14.3693C86.5597 14.3693 86.9531 14.4659 87.2884 14.6591C87.6264 14.8523 87.8878 15.1321 88.0724 15.4986C88.2599 15.8651 88.3523 16.3097 88.3494 16.8324V21H86.8068V17.071C86.8068 16.6335 86.6932 16.2912 86.4659 16.044C86.2415 15.7969 85.9304 15.6733 85.5327 15.6733C85.2628 15.6733 85.0227 15.733 84.8125 15.8523C84.6051 15.9687 84.4418 16.1378 84.3224 16.3594C84.206 16.581 84.1477 16.8494 84.1477 17.1648ZM92.8153 21.1278C92.1591 21.1278 91.5923 20.9915 91.1151 20.7188C90.6406 20.4432 90.2756 20.054 90.0199 19.5511C89.7642 19.0455 89.6364 18.4503 89.6364 17.7656C89.6364 17.0923 89.7642 16.5014 90.0199 15.9929C90.2784 15.4815 90.6392 15.0838 91.1023 14.7997C91.5653 14.5128 92.1094 14.3693 92.7344 14.3693C93.1378 14.3693 93.5185 14.4347 93.8764 14.5653C94.2372 14.6932 94.5554 14.892 94.831 15.1619C95.1094 15.4318 95.3281 15.7756 95.4872 16.1932C95.6463 16.608 95.7259 17.1023 95.7259 17.6761V18.1491H90.3608V17.1094H94.2472C94.2443 16.8139 94.1804 16.5511 94.0554 16.321C93.9304 16.0881 93.7557 15.9048 93.5312 15.7713C93.3097 15.6378 93.0511 15.571 92.7557 15.571C92.4403 15.571 92.1634 15.6477 91.9247 15.8011C91.6861 15.9517 91.5 16.1506 91.3665 16.3977C91.2358 16.642 91.169 16.9105 91.1662 17.2031V18.1108C91.1662 18.4915 91.2358 18.8182 91.375 19.0909C91.5142 19.3608 91.7088 19.5682 91.9588 19.7131C92.2088 19.8551 92.5014 19.9261 92.8366 19.9261C93.0611 19.9261 93.2642 19.8949 93.446 19.8324C93.6278 19.767 93.7855 19.6719 93.919 19.5469C94.0526 19.4219 94.1534 19.267 94.2216 19.0824L95.6619 19.2443C95.571 19.625 95.3977 19.9574 95.142 20.2415C94.8892 20.5227 94.5653 20.7415 94.1705 20.8977C93.7756 21.0511 93.3239 21.1278 92.8153 21.1278ZM97.0309 21V14.4545H98.5266V15.5455H98.5948C98.7141 15.1676 98.9187 14.8764 99.2085 14.6719C99.5011 14.4645 99.8349 14.3608 100.21 14.3608C100.295 14.3608 100.39 14.3651 100.495 14.3736C100.603 14.3793 100.693 14.3892 100.764 14.4034V15.8224C100.699 15.7997 100.595 15.7798 100.453 15.7628C100.314 15.7429 100.179 15.733 100.048 15.733C99.7667 15.733 99.5138 15.794 99.2894 15.9162C99.0678 16.0355 98.8931 16.2017 98.7653 16.4148C98.6374 16.6278 98.5735 16.8736 98.5735 17.152V21H97.0309Z" fill="white"/>
<path d="M4.53906 4.7522L19.4727 9.69458C19.4767 9.69592 19.4836 9.69968 19.4893 9.70728L19.5 9.74146C19.5001 9.75652 19.4957 9.76775 19.4902 9.77563L19.4736 9.79028L12.2451 12.4485L12.0225 12.5295L11.9453 12.7532L9.36328 20.1956C9.35501 20.2194 9.33885 20.2238 9.33301 20.2239L9.31934 20.219C9.31337 20.2148 9.30678 20.2073 9.30273 20.1946V20.1936L4.50293 4.81958V4.8186C4.49602 4.79596 4.50294 4.77338 4.51465 4.76099C4.52011 4.75537 4.52575 4.75308 4.5293 4.7522C4.53264 4.75139 4.53559 4.75107 4.53906 4.7522Z" fill="#3BC29C" stroke="white"/>
</g>
<defs>
<filter id="filter0_d_1_556" x="0" y="0.251221" width="110" height="29.7488" filterUnits="userSpaceOnUse" color-interpolation-filters="sRGB">
<feFlood flood-opacity="0" result="BackgroundImageFix"/>
<feColorMatrix in="SourceAlpha" type="matrix" values="0 0 0 0 0 0 0 0 0 0 0 0 0 0 0 0 0 0 127 0" result="hardAlpha"/>
<feOffset/>
<feGaussianBlur stdDeviation="2"/>
<feComposite in2="hardAlpha" operator="out"/>
<feColorMatrix type="matrix" values="0 0 0 0 0 0 0 0 0 0 0 0 0 0 0 0 0 0 0.3 0"/>
<feBlend mode="normal" in2="BackgroundImageFix" result="effect1_dropShadow_1_556"/>
<feBlend mode="normal" in="SourceGraphic" in2="effect1_dropShadow_1_556" result="shape"/>
</filter>
</defs>
</svg>
