<svg width="90" height="38" viewBox="0 0 90 38" fill="none" xmlns="http://www.w3.org/2000/svg">
<g filter="url(#filter0_d_1_548)">
<rect x="16" y="15" width="70" height="19" rx="3" fill="#8E55EA"/>
<path d="M25.1175 29L26.5494 20.2727H27.7425L26.3107 29H25.1175ZM21.1843 26.75L21.3846 25.5568H28.1005L27.9002 26.75H21.1843ZM22.0494 29L23.4812 20.2727H24.6744L23.2425 29H22.0494ZM21.6914 23.7159L21.8874 22.5227H28.6033L28.4073 23.7159H21.6914ZM32.576 29H29.6186V20.2727H32.6357C33.5021 20.2727 34.2464 20.4474 34.8686 20.7969C35.4936 21.1435 35.9737 21.642 36.3089 22.2926C36.6442 22.9432 36.8118 23.7216 36.8118 24.6278C36.8118 25.5369 36.6428 26.3182 36.3047 26.9716C35.9695 27.625 35.4851 28.1264 34.8516 28.4759C34.2209 28.8253 33.4624 29 32.576 29ZM31.1996 27.6321H32.4993C33.1072 27.6321 33.6143 27.5213 34.0206 27.2997C34.4268 27.0753 34.7322 26.7415 34.9368 26.2983C35.1413 25.8523 35.2436 25.2955 35.2436 24.6278C35.2436 23.9602 35.1413 23.4062 34.9368 22.9659C34.7322 22.5227 34.4297 22.1918 34.0291 21.973C33.6314 21.7514 33.1371 21.6406 32.5462 21.6406H31.1996V27.6321ZM41.1435 29.1278C40.4872 29.1278 39.9205 28.9915 39.4432 28.7188C38.9688 28.4432 38.6037 28.054 38.348 27.5511C38.0923 27.0455 37.9645 26.4503 37.9645 25.7656C37.9645 25.0923 38.0923 24.5014 38.348 23.9929C38.6065 23.4815 38.9673 23.0838 39.4304 22.7997C39.8935 22.5128 40.4375 22.3693 41.0625 22.3693C41.4659 22.3693 41.8466 22.4347 42.2045 22.5653C42.5653 22.6932 42.8835 22.892 43.1591 23.1619C43.4375 23.4318 43.6563 23.7756 43.8153 24.1932C43.9744 24.608 44.054 25.1023 44.054 25.6761V26.1491H38.6889V25.1094H42.5753C42.5724 24.8139 42.5085 24.5511 42.3835 24.321C42.2585 24.0881 42.0838 23.9048 41.8594 23.7713C41.6378 23.6378 41.3793 23.571 41.0838 23.571C40.7685 23.571 40.4915 23.6477 40.2528 23.8011C40.0142 23.9517 39.8281 24.1506 39.6946 24.3977C39.5639 24.642 39.4972 24.9105 39.4943 25.2031V26.1108C39.4943 26.4915 39.5639 26.8182 39.7031 27.0909C39.8423 27.3608 40.0369 27.5682 40.2869 27.7131C40.5369 27.8551 40.8295 27.9261 41.1648 27.9261C41.3892 27.9261 41.5923 27.8949 41.7741 27.8324C41.956 27.767 42.1136 27.6719 42.2472 27.5469C42.3807 27.4219 42.4815 27.267 42.5497 27.0824L43.9901 27.2443C43.8991 27.625 43.7259 27.9574 43.4702 28.2415C43.2173 28.5227 42.8935 28.7415 42.4986 28.8977C42.1037 29.0511 41.652 29.1278 41.1435 29.1278ZM50.5323 24.1847L49.1261 24.3381C49.0863 24.196 49.0167 24.0625 48.9173 23.9375C48.8207 23.8125 48.69 23.7116 48.5252 23.6349C48.3604 23.5582 48.1587 23.5199 47.9201 23.5199C47.5991 23.5199 47.3292 23.5895 47.1104 23.7287C46.8945 23.8679 46.788 24.0483 46.7908 24.2699C46.788 24.4602 46.8576 24.6151 46.9996 24.7344C47.1445 24.8537 47.3832 24.9517 47.7156 25.0284L48.832 25.267C49.4513 25.4006 49.9116 25.6122 50.2127 25.902C50.5167 26.1918 50.6701 26.571 50.6729 27.0398C50.6701 27.4517 50.5494 27.8153 50.3107 28.1307C50.0749 28.4432 49.7468 28.6875 49.3263 28.8636C48.9059 29.0398 48.4229 29.1278 47.8775 29.1278C47.0763 29.1278 46.4315 28.9602 45.9428 28.625C45.4542 28.2869 45.163 27.8168 45.0692 27.2145L46.5735 27.0696C46.6417 27.3651 46.7866 27.5881 47.0082 27.7386C47.2298 27.8892 47.5181 27.9645 47.8732 27.9645C48.2397 27.9645 48.5337 27.8892 48.7553 27.7386C48.9798 27.5881 49.092 27.402 49.092 27.1804C49.092 26.9929 49.0195 26.8381 48.8746 26.7159C48.7326 26.5937 48.511 26.5 48.2099 26.4347L47.0934 26.2003C46.4656 26.0696 46.0011 25.8494 45.6999 25.5398C45.3988 25.2273 45.2496 24.8324 45.2525 24.3551C45.2496 23.9517 45.359 23.6023 45.5806 23.3068C45.805 23.0085 46.1161 22.7784 46.5138 22.6165C46.9144 22.4517 47.3761 22.3693 47.8988 22.3693C48.6658 22.3693 49.2695 22.5327 49.7099 22.8594C50.1531 23.1861 50.4272 23.6278 50.5323 24.1847ZM51.945 29V22.4545H53.4876V29H51.945ZM52.7205 21.5256C52.4762 21.5256 52.266 21.4446 52.0898 21.2827C51.9137 21.1179 51.8256 20.9205 51.8256 20.6903C51.8256 20.4574 51.9137 20.2599 52.0898 20.098C52.266 19.9332 52.4762 19.8509 52.7205 19.8509C52.9677 19.8509 53.1779 19.9332 53.3512 20.098C53.5273 20.2599 53.6154 20.4574 53.6154 20.6903C53.6154 20.9205 53.5273 21.1179 53.3512 21.2827C53.1779 21.4446 52.9677 21.5256 52.7205 21.5256ZM57.9205 31.5909C57.3665 31.5909 56.8906 31.5156 56.4929 31.3651C56.0952 31.2173 55.7756 31.0185 55.5341 30.7685C55.2926 30.5185 55.125 30.2415 55.0312 29.9375L56.4205 29.6009C56.483 29.7287 56.5739 29.8551 56.6932 29.9801C56.8125 30.108 56.973 30.2131 57.1747 30.2955C57.3793 30.3807 57.6364 30.4233 57.946 30.4233C58.3835 30.4233 58.7457 30.3168 59.0327 30.1037C59.3196 29.8935 59.4631 29.5469 59.4631 29.0639V27.8239H59.3864C59.3068 27.983 59.1903 28.1463 59.0369 28.3139C58.8864 28.4815 58.6861 28.6222 58.4361 28.7358C58.1889 28.8494 57.8778 28.9062 57.5028 28.9062C57 28.9062 56.544 28.7884 56.1349 28.5526C55.7287 28.3139 55.4048 27.9588 55.1634 27.4872C54.9247 27.0128 54.8054 26.419 54.8054 25.706C54.8054 24.9872 54.9247 24.3807 55.1634 23.8864C55.4048 23.3892 55.7301 23.0128 56.1392 22.7571C56.5483 22.4986 57.0043 22.3693 57.5071 22.3693C57.8906 22.3693 58.206 22.4347 58.4531 22.5653C58.7031 22.6932 58.902 22.848 59.0497 23.0298C59.1974 23.2088 59.3097 23.3778 59.3864 23.5369H59.4716V22.4545H60.9929V29.1065C60.9929 29.6662 60.8594 30.1293 60.5923 30.4957C60.3253 30.8622 59.9602 31.1364 59.4972 31.3182C59.0341 31.5 58.5085 31.5909 57.9205 31.5909ZM57.9332 27.696C58.2599 27.696 58.5384 27.6165 58.7685 27.4574C58.9986 27.2983 59.1733 27.0696 59.2926 26.7713C59.4119 26.473 59.4716 26.1151 59.4716 25.6974C59.4716 25.2855 59.4119 24.9247 59.2926 24.6151C59.1761 24.3054 59.0028 24.0653 58.7727 23.8949C58.5455 23.7216 58.2656 23.6349 57.9332 23.6349C57.5895 23.6349 57.3026 23.7244 57.0724 23.9034C56.8423 24.0824 56.669 24.3281 56.5526 24.6406C56.4361 24.9503 56.3778 25.3026 56.3778 25.6974C56.3778 26.098 56.4361 26.4489 56.5526 26.75C56.6719 27.0483 56.8466 27.2812 57.0767 27.4489C57.3097 27.6136 57.5952 27.696 57.9332 27.696ZM64.1165 25.1648V29H62.5739V22.4545H64.0483V23.5668H64.125C64.2756 23.2003 64.5156 22.9091 64.8452 22.6932C65.1776 22.4773 65.5881 22.3693 66.0767 22.3693C66.5284 22.3693 66.9219 22.4659 67.2571 22.6591C67.5952 22.8523 67.8565 23.1321 68.0412 23.4986C68.2287 23.8651 68.321 24.3097 68.3182 24.8324V29H66.7756V25.071C66.7756 24.6335 66.6619 24.2912 66.4347 24.044C66.2102 23.7969 65.8991 23.6733 65.5014 23.6733C65.2315 23.6733 64.9915 23.733 64.7812 23.8523C64.5739 23.9687 64.4105 24.1378 64.2912 24.3594C64.1747 24.581 64.1165 24.8494 64.1165 25.1648ZM72.7841 29.1278C72.1278 29.1278 71.5611 28.9915 71.0838 28.7188C70.6094 28.4432 70.2443 28.054 69.9886 27.5511C69.733 27.0455 69.6051 26.4503 69.6051 25.7656C69.6051 25.0923 69.733 24.5014 69.9886 23.9929C70.2472 23.4815 70.608 23.0838 71.071 22.7997C71.5341 22.5128 72.0781 22.3693 72.7031 22.3693C73.1065 22.3693 73.4872 22.4347 73.8452 22.5653C74.206 22.6932 74.5241 22.892 74.7997 23.1619C75.0781 23.4318 75.2969 23.7756 75.456 24.1932C75.6151 24.608 75.6946 25.1023 75.6946 25.6761V26.1491H70.3295V25.1094H74.2159C74.2131 24.8139 74.1491 24.5511 74.0241 24.321C73.8991 24.0881 73.7244 23.9048 73.5 23.7713C73.2784 23.6378 73.0199 23.571 72.7244 23.571C72.4091 23.571 72.1321 23.6477 71.8935 23.8011C71.6548 23.9517 71.4688 24.1506 71.3352 24.3977C71.2045 24.642 71.1378 24.9105 71.1349 25.2031V26.1108C71.1349 26.4915 71.2045 26.8182 71.3438 27.0909C71.483 27.3608 71.6776 27.5682 71.9276 27.7131C72.1776 27.8551 72.4702 27.9261 72.8054 27.9261C73.0298 27.9261 73.233 27.8949 73.4148 27.8324C73.5966 27.767 73.7543 27.6719 73.8878 27.5469C74.0213 27.4219 74.1222 27.267 74.1903 27.0824L75.6307 27.2443C75.5398 27.625 75.3665 27.9574 75.1108 28.2415C74.858 28.5227 74.5341 28.7415 74.1392 28.8977C73.7443 29.0511 73.2926 29.1278 72.7841 29.1278ZM76.9996 29V22.4545H78.4954V23.5455H78.5636C78.6829 23.1676 78.8874 22.8764 79.1772 22.6719C79.4698 22.4645 79.8036 22.3608 80.1786 22.3608C80.2638 22.3608 80.359 22.3651 80.4641 22.3736C80.5721 22.3793 80.6616 22.3892 80.7326 22.4034V23.8224C80.6673 23.7997 80.5636 23.7798 80.4215 23.7628C80.2823 23.7429 80.1474 23.733 80.0167 23.733C79.7354 23.733 79.4826 23.794 79.2582 23.9162C79.0366 24.0355 78.8619 24.2017 78.734 24.4148C78.6062 24.6278 78.5423 24.8736 78.5423 25.152V29H76.9996Z" fill="white"/>
<path d="M4.53906 4.83105L19.4727 9.77344C19.4767 9.77478 19.4836 9.77854 19.4893 9.78613L19.5 9.82031C19.5001 9.83538 19.4957 9.84661 19.4902 9.85449L19.4736 9.86914L12.2451 12.5273L12.0225 12.6084L11.9453 12.832L9.36328 20.2744C9.35501 20.2983 9.33885 20.3026 9.33301 20.3027L9.31934 20.2979C9.31337 20.2936 9.30678 20.2862 9.30273 20.2734V20.2725L4.50293 4.89844V4.89746C4.49602 4.87482 4.50294 4.85223 4.51465 4.83984C4.52011 4.83422 4.52575 4.83194 4.5293 4.83105C4.53264 4.83025 4.53559 4.82992 4.53906 4.83105Z" fill="#8E55EA" stroke="white"/>
</g>
<defs>
<filter id="filter0_d_1_548" x="0" y="0.330078" width="90" height="37.6699" filterUnits="userSpaceOnUse" color-interpolation-filters="sRGB">
<feFlood flood-opacity="0" result="BackgroundImageFix"/>
<feColorMatrix in="SourceAlpha" type="matrix" values="0 0 0 0 0 0 0 0 0 0 0 0 0 0 0 0 0 0 127 0" result="hardAlpha"/>
<feOffset/>
<feGaussianBlur stdDeviation="2"/>
<feComposite in2="hardAlpha" operator="out"/>
<feColorMatrix type="matrix" values="0 0 0 0 0 0 0 0 0 0 0 0 0 0 0 0 0 0 0.3 0"/>
<feBlend mode="normal" in2="BackgroundImageFix" result="effect1_dropShadow_1_548"/>
<feBlend mode="normal" in="SourceGraphic" in2="effect1_dropShadow_1_548" result="shape"/>
</filter>
</defs>
</svg>
