<svg width="134" height="33" viewBox="0 0 134 33" fill="none" xmlns="http://www.w3.org/2000/svg">
<g filter="url(#filter0_d_1_552)">
<rect x="16" y="10" width="114" height="19" rx="3" fill="#6D028E"/>
<path d="M25.5199 24L26.9517 15.2727H28.1449L26.7131 24H25.5199ZM21.5866 21.75L21.7869 20.5568H28.5028L28.3026 21.75H21.5866ZM22.4517 24L23.8835 15.2727H25.0767L23.6449 24H22.4517ZM22.0938 18.7159L22.2898 17.5227H29.0057L28.8097 18.7159H22.0938ZM30.021 24V15.2727H33.2937C33.9641 15.2727 34.5266 15.3892 34.9812 15.6222C35.4386 15.8551 35.7837 16.1818 36.0167 16.6023C36.2525 17.0199 36.3704 17.5071 36.3704 18.0639C36.3704 18.6236 36.2511 19.1094 36.0124 19.5213C35.7766 19.9304 35.4286 20.2472 34.9684 20.4716C34.5082 20.6932 33.9428 20.804 33.2724 20.804H30.9414V19.4915H33.0593C33.4513 19.4915 33.7724 19.4375 34.0224 19.3295C34.2724 19.2187 34.457 19.0582 34.5763 18.848C34.6985 18.6349 34.7596 18.3736 34.7596 18.0639C34.7596 17.7543 34.6985 17.4901 34.5763 17.2713C34.4542 17.0497 34.2681 16.8821 34.0181 16.7685C33.7681 16.652 33.4457 16.5938 33.0508 16.5938H31.6019V24H30.021ZM34.5295 20.0455L36.69 24H34.9258L32.8036 20.0455H34.5295ZM40.5614 24.1278C39.9052 24.1278 39.3384 23.9915 38.8612 23.7188C38.3867 23.4432 38.0217 23.054 37.766 22.5511C37.5103 22.0455 37.3825 21.4503 37.3825 20.7656C37.3825 20.0923 37.5103 19.5014 37.766 18.9929C38.0245 18.4815 38.3853 18.0838 38.8484 17.7997C39.3114 17.5128 39.8555 17.3693 40.4805 17.3693C40.8839 17.3693 41.2646 17.4347 41.6225 17.5653C41.9833 17.6932 42.3015 17.892 42.5771 18.1619C42.8555 18.4318 43.0742 18.7756 43.2333 19.1932C43.3924 19.608 43.4719 20.1023 43.4719 20.6761V21.1491H38.1069V20.1094H41.9933C41.9904 19.8139 41.9265 19.5511 41.8015 19.321C41.6765 19.0881 41.5018 18.9048 41.2773 18.7713C41.0558 18.6378 40.7972 18.571 40.5018 18.571C40.1864 18.571 39.9094 18.6477 39.6708 18.8011C39.4322 18.9517 39.2461 19.1506 39.1126 19.3977C38.9819 19.642 38.9151 19.9105 38.9123 20.2031V21.1108C38.9123 21.4915 38.9819 21.8182 39.1211 22.0909C39.2603 22.3608 39.4549 22.5682 39.7049 22.7131C39.9549 22.8551 40.2475 22.9261 40.5827 22.9261C40.8072 22.9261 41.0103 22.8949 41.1921 22.8324C41.3739 22.767 41.5316 22.6719 41.6651 22.5469C41.7987 22.4219 41.8995 22.267 41.9677 22.0824L43.408 22.2443C43.3171 22.625 43.1438 22.9574 42.8881 23.2415C42.6353 23.5227 42.3114 23.7415 41.9165 23.8977C41.5217 24.0511 41.07 24.1278 40.5614 24.1278ZM46.6605 24.1321C46.2457 24.1321 45.8722 24.0582 45.5398 23.9105C45.2102 23.7599 44.9489 23.5384 44.7557 23.2457C44.5653 22.9531 44.4702 22.5923 44.4702 22.1634C44.4702 21.794 44.5384 21.4886 44.6747 21.2472C44.8111 21.0057 44.9972 20.8125 45.233 20.6676C45.4688 20.5227 45.7344 20.4134 46.0298 20.3395C46.3281 20.2628 46.6364 20.2074 46.9545 20.1733C47.3381 20.1335 47.6491 20.098 47.8878 20.0668C48.1264 20.0327 48.2997 19.9815 48.4077 19.9134C48.5185 19.8423 48.5739 19.733 48.5739 19.5852V19.5597C48.5739 19.2386 48.4787 18.9901 48.2884 18.8139C48.098 18.6378 47.8239 18.5497 47.4659 18.5497C47.0881 18.5497 46.7884 18.6321 46.5668 18.7969C46.348 18.9616 46.2003 19.1562 46.1236 19.3807L44.6832 19.1761C44.7969 18.7784 44.9844 18.446 45.2457 18.179C45.5071 17.9091 45.8267 17.7074 46.2045 17.5739C46.5824 17.4375 47 17.3693 47.4574 17.3693C47.7727 17.3693 48.0866 17.4062 48.3991 17.4801C48.7116 17.554 48.9972 17.6761 49.2557 17.8466C49.5142 18.0142 49.7216 18.2429 49.8778 18.5327C50.0369 18.8224 50.1165 19.1847 50.1165 19.6193V24H48.6335V23.1009H48.5824C48.4886 23.2827 48.3565 23.4531 48.1861 23.6122C48.0185 23.7685 47.8068 23.8949 47.5511 23.9915C47.2983 24.0852 47.0014 24.1321 46.6605 24.1321ZM47.0611 22.9986C47.3707 22.9986 47.6392 22.9375 47.8665 22.8153C48.0938 22.6903 48.2685 22.5256 48.3906 22.321C48.5156 22.1165 48.5781 21.8935 48.5781 21.652V20.8807C48.5298 20.9205 48.4474 20.9574 48.331 20.9915C48.2173 21.0256 48.0895 21.0554 47.9474 21.081C47.8054 21.1065 47.6648 21.1293 47.5256 21.1491C47.3864 21.169 47.2656 21.1861 47.1634 21.2003C46.9332 21.2315 46.7273 21.2827 46.5455 21.3537C46.3636 21.4247 46.2202 21.5241 46.1151 21.652C46.0099 21.777 45.9574 21.9389 45.9574 22.1378C45.9574 22.4219 46.0611 22.6364 46.2685 22.7812C46.4759 22.9261 46.7401 22.9986 47.0611 22.9986ZM54.5227 24.1278C53.8693 24.1278 53.3082 23.9844 52.8395 23.6974C52.3736 23.4105 52.0142 23.0142 51.7614 22.5085C51.5114 22 51.3864 21.4148 51.3864 20.7528C51.3864 20.0881 51.5142 19.5014 51.7699 18.9929C52.0256 18.4815 52.3864 18.0838 52.8523 17.7997C53.321 17.5128 53.875 17.3693 54.5142 17.3693C55.0455 17.3693 55.5156 17.4673 55.9247 17.6634C56.3366 17.8565 56.6648 18.1307 56.9091 18.4858C57.1534 18.8381 57.2926 19.25 57.3267 19.7216H55.8523C55.7926 19.4062 55.6506 19.1435 55.4261 18.9332C55.2045 18.7202 54.9077 18.6136 54.5355 18.6136C54.2202 18.6136 53.9432 18.6989 53.7045 18.8693C53.4659 19.0369 53.2798 19.2784 53.1463 19.5938C53.0156 19.9091 52.9503 20.2869 52.9503 20.7273C52.9503 21.1733 53.0156 21.5568 53.1463 21.8778C53.277 22.196 53.4602 22.4418 53.696 22.6151C53.9347 22.7855 54.2145 22.8707 54.5355 22.8707C54.7628 22.8707 54.9659 22.8281 55.1449 22.7429C55.3267 22.6548 55.4787 22.5284 55.6009 22.3636C55.723 22.1989 55.8068 21.9986 55.8523 21.7628H57.3267C57.2898 22.2259 57.1534 22.6364 56.9176 22.9943C56.6818 23.3494 56.3608 23.6278 55.9545 23.8295C55.5483 24.0284 55.071 24.1278 54.5227 24.1278ZM61.8619 17.4545V18.6477H58.0991V17.4545H61.8619ZM59.0281 15.8864H60.5707V22.0312C60.5707 22.2386 60.6019 22.3977 60.6644 22.5085C60.7298 22.6165 60.815 22.6903 60.9201 22.7301C61.0252 22.7699 61.1417 22.7898 61.2695 22.7898C61.3661 22.7898 61.4542 22.7827 61.5337 22.7685C61.6161 22.7543 61.6786 22.7415 61.7212 22.7301L61.9812 23.9361C61.8988 23.9645 61.7809 23.9957 61.6275 24.0298C61.4769 24.0639 61.2923 24.0838 61.0735 24.0895C60.6871 24.1009 60.3391 24.0426 60.0295 23.9148C59.7198 23.7841 59.4741 23.5824 59.2923 23.3097C59.1133 23.0369 59.0252 22.696 59.0281 22.2869V15.8864ZM69.1541 24H66.1967V15.2727H69.2138C70.0803 15.2727 70.8246 15.4474 71.4467 15.7969C72.0717 16.1435 72.5518 16.642 72.8871 17.2926C73.2223 17.9432 73.3899 18.7216 73.3899 19.6278C73.3899 20.5369 73.2209 21.3182 72.8828 21.9716C72.5476 22.625 72.0632 23.1264 71.4297 23.4759C70.799 23.8253 70.0405 24 69.1541 24ZM67.7777 22.6321H69.0774C69.6854 22.6321 70.1925 22.5213 70.5987 22.2997C71.005 22.0753 71.3104 21.7415 71.5149 21.2983C71.7195 20.8523 71.8217 20.2955 71.8217 19.6278C71.8217 18.9602 71.7195 18.4062 71.5149 17.9659C71.3104 17.5227 71.0078 17.1918 70.6072 16.973C70.2095 16.7514 69.7152 16.6406 69.1243 16.6406H67.7777V22.6321ZM77.7216 24.1278C77.0653 24.1278 76.4986 23.9915 76.0213 23.7188C75.5469 23.4432 75.1818 23.054 74.9261 22.5511C74.6705 22.0455 74.5426 21.4503 74.5426 20.7656C74.5426 20.0923 74.6705 19.5014 74.9261 18.9929C75.1847 18.4815 75.5455 18.0838 76.0085 17.7997C76.4716 17.5128 77.0156 17.3693 77.6406 17.3693C78.044 17.3693 78.4247 17.4347 78.7827 17.5653C79.1435 17.6932 79.4616 17.892 79.7372 18.1619C80.0156 18.4318 80.2344 18.7756 80.3935 19.1932C80.5526 19.608 80.6321 20.1023 80.6321 20.6761V21.1491H75.267V20.1094H79.1534C79.1506 19.8139 79.0866 19.5511 78.9616 19.321C78.8366 19.0881 78.6619 18.9048 78.4375 18.7713C78.2159 18.6378 77.9574 18.571 77.6619 18.571C77.3466 18.571 77.0696 18.6477 76.831 18.8011C76.5923 18.9517 76.4063 19.1506 76.2727 19.3977C76.142 19.642 76.0753 19.9105 76.0724 20.2031V21.1108C76.0724 21.4915 76.142 21.8182 76.2812 22.0909C76.4205 22.3608 76.6151 22.5682 76.8651 22.7131C77.1151 22.8551 77.4077 22.9261 77.7429 22.9261C77.9673 22.9261 78.1705 22.8949 78.3523 22.8324C78.5341 22.767 78.6918 22.6719 78.8253 22.5469C78.9588 22.4219 79.0597 22.267 79.1278 22.0824L80.5682 22.2443C80.4773 22.625 80.304 22.9574 80.0483 23.2415C79.7955 23.5227 79.4716 23.7415 79.0767 23.8977C78.6818 24.0511 78.2301 24.1278 77.7216 24.1278ZM87.5962 17.4545L85.2653 24H83.5607L81.2298 17.4545H82.8746L84.3789 22.3168H84.4471L85.9556 17.4545H87.5962ZM91.3388 24.1278C90.6825 24.1278 90.1158 23.9915 89.6385 23.7188C89.1641 23.4432 88.799 23.054 88.5433 22.5511C88.2876 22.0455 88.1598 21.4503 88.1598 20.7656C88.1598 20.0923 88.2876 19.5014 88.5433 18.9929C88.8018 18.4815 89.1626 18.0838 89.6257 17.7997C90.0888 17.5128 90.6328 17.3693 91.2578 17.3693C91.6612 17.3693 92.0419 17.4347 92.3999 17.5653C92.7607 17.6932 93.0788 17.892 93.3544 18.1619C93.6328 18.4318 93.8516 18.7756 94.0107 19.1932C94.1697 19.608 94.2493 20.1023 94.2493 20.6761V21.1491H88.8842V20.1094H92.7706C92.7678 19.8139 92.7038 19.5511 92.5788 19.321C92.4538 19.0881 92.2791 18.9048 92.0547 18.7713C91.8331 18.6378 91.5746 18.571 91.2791 18.571C90.9638 18.571 90.6868 18.6477 90.4482 18.8011C90.2095 18.9517 90.0234 19.1506 89.8899 19.3977C89.7592 19.642 89.6925 19.9105 89.6896 20.2031V21.1108C89.6896 21.4915 89.7592 21.8182 89.8984 22.0909C90.0376 22.3608 90.2322 22.5682 90.4822 22.7131C90.7322 22.8551 91.0249 22.9261 91.3601 22.9261C91.5845 22.9261 91.7876 22.8949 91.9695 22.8324C92.1513 22.767 92.3089 22.6719 92.4425 22.5469C92.576 22.4219 92.6768 22.267 92.745 22.0824L94.1854 22.2443C94.0945 22.625 93.9212 22.9574 93.6655 23.2415C93.4126 23.5227 93.0888 23.7415 92.6939 23.8977C92.299 24.0511 91.8473 24.1278 91.3388 24.1278ZM97.0969 15.2727V24H95.5543V15.2727H97.0969ZM101.538 24.1278C100.899 24.1278 100.345 23.9872 99.8764 23.706C99.4077 23.4247 99.044 23.0312 98.7855 22.5256C98.5298 22.0199 98.402 21.429 98.402 20.7528C98.402 20.0767 98.5298 19.4844 98.7855 18.9759C99.044 18.4673 99.4077 18.0724 99.8764 17.7912C100.345 17.5099 100.899 17.3693 101.538 17.3693C102.178 17.3693 102.732 17.5099 103.2 17.7912C103.669 18.0724 104.031 18.4673 104.287 18.9759C104.545 19.4844 104.675 20.0767 104.675 20.7528C104.675 21.429 104.545 22.0199 104.287 22.5256C104.031 23.0312 103.669 23.4247 103.2 23.706C102.732 23.9872 102.178 24.1278 101.538 24.1278ZM101.547 22.892C101.893 22.892 102.183 22.7969 102.416 22.6065C102.649 22.4134 102.822 22.1548 102.936 21.831C103.053 21.5071 103.111 21.1463 103.111 20.7486C103.111 20.348 103.053 19.9858 102.936 19.6619C102.822 19.3352 102.649 19.0753 102.416 18.8821C102.183 18.6889 101.893 18.5923 101.547 18.5923C101.192 18.5923 100.896 18.6889 100.661 18.8821C100.428 19.0753 100.253 19.3352 100.136 19.6619C100.023 19.9858 99.9659 20.348 99.9659 20.7486C99.9659 21.1463 100.023 21.5071 100.136 21.831C100.253 22.1548 100.428 22.4134 100.661 22.6065C100.896 22.7969 101.192 22.892 101.547 22.892ZM105.984 26.4545V17.4545H107.501V18.5369H107.591C107.67 18.3778 107.782 18.2088 107.927 18.0298C108.072 17.848 108.268 17.6932 108.515 17.5653C108.762 17.4347 109.078 17.3693 109.461 17.3693C109.967 17.3693 110.423 17.4986 110.829 17.7571C111.238 18.0128 111.562 18.392 111.801 18.8949C112.042 19.3949 112.163 20.0085 112.163 20.7358C112.163 21.4545 112.045 22.0653 111.809 22.5682C111.574 23.071 111.252 23.4545 110.846 23.7188C110.44 23.983 109.98 24.1151 109.466 24.1151C109.091 24.1151 108.779 24.0526 108.532 23.9276C108.285 23.8026 108.086 23.652 107.936 23.4759C107.788 23.2969 107.673 23.1278 107.591 22.9688H107.527V26.4545H105.984ZM107.497 20.7273C107.497 21.1506 107.556 21.5213 107.676 21.8395C107.798 22.1577 107.973 22.4062 108.2 22.5852C108.43 22.7614 108.708 22.8494 109.035 22.8494C109.376 22.8494 109.662 22.7585 109.892 22.5767C110.122 22.392 110.295 22.1406 110.412 21.8224C110.531 21.5014 110.591 21.1364 110.591 20.7273C110.591 20.321 110.532 19.9602 110.416 19.6449C110.299 19.3295 110.126 19.0824 109.896 18.9034C109.666 18.7244 109.379 18.6349 109.035 18.6349C108.706 18.6349 108.426 18.7216 108.196 18.8949C107.966 19.0682 107.791 19.3111 107.672 19.6236C107.555 19.9361 107.497 20.304 107.497 20.7273ZM116.382 24.1278C115.725 24.1278 115.159 23.9915 114.681 23.7188C114.207 23.4432 113.842 23.054 113.586 22.5511C113.331 22.0455 113.203 21.4503 113.203 20.7656C113.203 20.0923 113.331 19.5014 113.586 18.9929C113.845 18.4815 114.206 18.0838 114.669 17.7997C115.132 17.5128 115.676 17.3693 116.301 17.3693C116.704 17.3693 117.085 17.4347 117.443 17.5653C117.804 17.6932 118.122 17.892 118.397 18.1619C118.676 18.4318 118.895 18.7756 119.054 19.1932C119.213 19.608 119.292 20.1023 119.292 20.6761V21.1491H113.927V20.1094H117.814C117.811 19.8139 117.747 19.5511 117.622 19.321C117.497 19.0881 117.322 18.9048 117.098 18.7713C116.876 18.6378 116.618 18.571 116.322 18.571C116.007 18.571 115.73 18.6477 115.491 18.8011C115.252 18.9517 115.066 19.1506 114.933 19.3977C114.802 19.642 114.735 19.9105 114.733 20.2031V21.1108C114.733 21.4915 114.802 21.8182 114.941 22.0909C115.081 22.3608 115.275 22.5682 115.525 22.7131C115.775 22.8551 116.068 22.9261 116.403 22.9261C116.627 22.9261 116.831 22.8949 117.012 22.8324C117.194 22.767 117.352 22.6719 117.485 22.5469C117.619 22.4219 117.72 22.267 117.788 22.0824L119.228 22.2443C119.137 22.625 118.964 22.9574 118.708 23.2415C118.456 23.5227 118.132 23.7415 117.737 23.8977C117.342 24.0511 116.89 24.1278 116.382 24.1278ZM120.597 24V17.4545H122.093V18.5455H122.161C122.281 18.1676 122.485 17.8764 122.775 17.6719C123.067 17.4645 123.401 17.3608 123.776 17.3608C123.862 17.3608 123.957 17.3651 124.062 17.3736C124.17 17.3793 124.259 17.3892 124.33 17.4034V18.8224C124.265 18.7997 124.161 18.7798 124.019 18.7628C123.88 18.7429 123.745 18.733 123.614 18.733C123.333 18.733 123.08 18.794 122.856 18.9162C122.634 19.0355 122.46 19.2017 122.332 19.4148C122.204 19.6278 122.14 19.8736 122.14 20.152V24H120.597Z" fill="white"/>
<path d="M4.53906 4.91479L19.4727 9.85718C19.4767 9.85852 19.4836 9.86228 19.4893 9.86987L19.5 9.90405C19.5001 9.91912 19.4957 9.93035 19.4902 9.93823L19.4736 9.95288L12.2451 12.6111L12.0225 12.6921L11.9453 12.9158L9.36328 20.3582C9.35501 20.382 9.33885 20.3864 9.33301 20.3865L9.31934 20.3816C9.31337 20.3774 9.30678 20.3699 9.30273 20.3572V20.3562L4.50293 4.98218V4.9812C4.49602 4.95856 4.50294 4.93598 4.51465 4.92358C4.52011 4.91796 4.52575 4.91568 4.5293 4.91479C4.53264 4.91399 4.53559 4.91366 4.53906 4.91479Z" fill="#6D028E" stroke="white"/>
</g>
<defs>
<filter id="filter0_d_1_552" x="0" y="0.413818" width="134" height="32.5862" filterUnits="userSpaceOnUse" color-interpolation-filters="sRGB">
<feFlood flood-opacity="0" result="BackgroundImageFix"/>
<feColorMatrix in="SourceAlpha" type="matrix" values="0 0 0 0 0 0 0 0 0 0 0 0 0 0 0 0 0 0 127 0" result="hardAlpha"/>
<feOffset/>
<feGaussianBlur stdDeviation="2"/>
<feComposite in2="hardAlpha" operator="out"/>
<feColorMatrix type="matrix" values="0 0 0 0 0 0 0 0 0 0 0 0 0 0 0 0 0 0 0.3 0"/>
<feBlend mode="normal" in2="BackgroundImageFix" result="effect1_dropShadow_1_552"/>
<feBlend mode="normal" in="SourceGraphic" in2="effect1_dropShadow_1_552" result="shape"/>
</filter>
</defs>
</svg>
