<svg width="345" height="413" viewBox="0 0 345 413" fill="none" xmlns="http://www.w3.org/2000/svg">
<path d="M20 15C20 6.71573 26.7157 0 35 0H310C318.284 0 325 6.71573 325 15V392C325 400.284 318.284 407 310 407H35C26.7157 407 20 400.284 20 392V15Z" fill="white" fill-opacity="0.3"/>
<path d="M10 21C10 12.7157 16.7157 6 25 6H320C328.284 6 335 12.7157 335 21V398C335 406.284 328.284 413 320 413H25C16.7157 413 10 406.284 10 398V21Z" fill="white" fill-opacity="0.3"/>
<path d="M0 28C0 19.7157 6.71573 13 15 13H330C338.284 13 345 19.7157 345 28V263C345 271.284 338.284 278 330 278H15C6.71573 278 0 271.284 0 263V28Z" fill="white"/>
</svg>
